<svg xmlns="http://www.w3.org/2000/svg" width="900" height="1125" viewBox="0 0 900 1125" role="img" aria-labelledby="t d">
<title id="t">Porte-bijoux Nova</title><desc id="d">Un petit objet utile au design epure.</desc>
<defs>
<linearGradient id="bg" x1="0" y1="0" x2="1" y2="1"><stop offset="0%" stop-color="#FAF8F2"/><stop offset="100%" stop-color="#D9D9D9"/></linearGradient>
<radialGradient id="shine" cx="80%" cy="14%" r="40%"><stop offset="0%" stop-color="#D8B96A" stop-opacity="0.35"/><stop offset="100%" stop-color="#D8B96A" stop-opacity="0"/></radialGradient>
</defs>
<rect width="900" height="1125" fill="url(#bg)"/>
<rect width="900" height="1125" fill="url(#shine)"/>
<rect x="74" y="74" width="752" height="977" rx="36" fill="#ffffff" fill-opacity="0.45" stroke="#D8B96A" stroke-opacity="0.35"/>
<rect x="190" y="200" width="520" height="430" rx="120" fill="#F2EEE4" stroke="#2E3236" stroke-opacity="0.08"/>
<circle cx="450" cy="405" r="128" fill="none" stroke="#D8B96A" stroke-width="18" stroke-linecap="round"/>
<path d="M336 405c34-52 66-78 114-78 84 0 136 73 136 148 0 72-56 128-136 128-66 0-118-38-150-98" fill="none" stroke="#2E3236" stroke-width="18" stroke-linecap="round"/>
<circle cx="636" cy="255" r="28" fill="#D8B96A" fill-opacity="0.35"/>
<text x="120" y="760" fill="#2E3236" font-size="52" font-family="Inter, Arial, sans-serif" font-weight="700">Porte-bijoux Nova</text>
<text x="120" y="820" fill="#6D7278" font-size="26" font-family="Inter, Arial, sans-serif">Un petit objet utile au design epure.</text>
<text x="120" y="930" fill="#D8B96A" font-size="22" letter-spacing="4" font-family="Inter, Arial, sans-serif">COZY SPACE.DZ</text>
</svg>